<?xml version="1.0" standalone="no"?>
<!DOCTYPE svg PUBLIC "-//W3C//DTD SVG 20010904//EN"
 "http://www.w3.org/TR/2001/REC-SVG-20010904/DTD/svg10.dtd">
<svg version="1.0" xmlns="http://www.w3.org/2000/svg"
 width="1280.000000pt" height="1276.000000pt" viewBox="0 0 1280.000000 1276.000000"
 preserveAspectRatio="xMidYMid meet">
<metadata>
Created by potrace 1.15, written by Peter Selinger 2001-2017
</metadata>
<g transform="translate(0.000000,1276.000000) scale(0.100000,-0.100000)"
fill="#000000" stroke="none">
<path d="M2024 12742 c-186 -66 -328 -232 -370 -432 -32 -154 -14 -442 41
-654 66 -254 137 -408 380 -826 200 -344 259 -534 259 -830 0 -171 -16 -306
-55 -470 -39 -166 -32 -153 -112 -201 -39 -23 -110 -68 -157 -99 l-85 -57 70
141 c214 432 277 947 152 1253 -109 267 -387 444 -636 406 -223 -35 -353 -194
-353 -432 0 -103 21 -179 68 -243 105 -146 381 -139 518 13 30 33 36 47 36 84
0 25 -3 45 -6 45 -3 0 -19 -11 -36 -25 -95 -80 -354 -70 -455 18 -47 42 -66
87 -52 124 36 96 199 175 358 174 264 -1 483 -167 548 -414 50 -191 -11 -506
-153 -789 -106 -211 -192 -336 -397 -570 -154 -177 -258 -311 -323 -412 l-49
-79 -7 99 c-11 168 -46 262 -124 341 -70 69 -141 98 -244 98 -71 0 -94 -4
-141 -26 -73 -34 -128 -85 -159 -146 -22 -42 -25 -61 -25 -154 0 -98 2 -108
27 -146 52 -78 164 -94 284 -39 86 39 114 63 114 96 0 36 -15 40 -156 40 -61
0 -126 5 -145 11 -41 14 -69 37 -69 56 0 28 93 113 158 145 58 29 76 33 147
33 96 0 158 -24 222 -87 83 -82 124 -233 88 -328 -9 -25 -20 -63 -25 -85 -5
-22 -22 -78 -39 -125 -46 -130 -61 -216 -61 -360 0 -371 162 -715 451 -957
l80 -67 -56 -27 c-99 -47 -142 -103 -165 -212 -24 -116 11 -222 143 -440 133
-219 149 -263 167 -446 14 -144 27 -204 56 -262 51 -103 142 -157 275 -166 43
-3 79 -9 79 -12 0 -3 -46 -69 -101 -146 -103 -145 -168 -265 -188 -348 -27
-113 -31 -402 -6 -488 16 -59 13 -57 -25 8 -176 311 -545 413 -734 202 -25
-28 -77 -103 -115 -168 -113 -191 -156 -223 -352 -267 -140 -30 -215 -66 -241
-114 -28 -52 -22 -186 11 -255 34 -69 136 -168 264 -254 59 -40 107 -76 107
-81 0 -4 -28 -10 -62 -14 -194 -20 -350 -74 -426 -149 -128 -125 -118 -423 18
-556 26 -25 91 -65 175 -106 189 -93 230 -141 286 -327 12 -40 32 -93 44 -118
l23 -45 -99 -2 c-149 -2 -339 -23 -339 -38 0 -7 -10 -15 -21 -18 -37 -10 -16
-58 70 -165 133 -166 197 -208 367 -244 122 -25 287 -27 354 -3 25 8 34 14 20
12 l-25 -3 0 113 c0 108 1 113 20 108 11 -3 6 2 -10 9 -17 8 -87 19 -155 26
-260 23 -278 27 -390 79 -58 27 -114 51 -125 54 -11 2 6 7 38 12 83 11 254 0
306 -19 32 -12 47 -13 51 -5 5 7 21 4 50 -11 110 -56 271 -74 400 -45 96 22
89 22 195 -9 114 -34 289 -119 381 -184 89 -63 194 -160 194 -178 0 -8 8 -15
18 -15 9 -1 1 -4 -18 -8 -38 -7 -57 -41 -23 -41 36 0 175 -41 239 -70 163 -74
352 -230 443 -365 111 -167 153 -333 153 -615 1 -219 16 -213 25 10 14 356
-75 618 -280 823 -64 64 -61 65 47 20 98 -41 131 -66 223 -168 10 -12 14 -15
10 -9 -5 7 -7 49 -5 94 3 79 3 81 -22 86 -48 9 -116 33 -195 67 -44 20 -97 39
-117 42 -33 6 -39 4 -46 -14 -7 -21 -8 -21 -46 5 -59 40 -177 92 -246 108 -62
15 -78 22 -69 31 3 2 101 15 219 27 184 19 226 20 305 10 76 -10 177 -34 241
-59 10 -3 14 3 14 20 0 30 -66 76 -150 104 -91 30 -267 25 -479 -16 -145 -27
-176 -30 -187 -19 -8 8 -18 58 -25 118 -6 58 -14 119 -19 136 l-8 31 112 0
c123 -1 202 16 292 60 67 33 128 90 222 210 68 86 164 183 182 183 4 0 11 -15
14 -34 16 -83 98 -146 211 -161 117 -15 116 -13 41 -53 -83 -44 -160 -111
-189 -166 -29 -57 -29 -146 1 -204 50 -95 118 -141 302 -207 174 -62 207 -83
342 -227 103 -110 131 -133 194 -164 82 -41 178 -55 249 -35 60 16 114 66 145
134 l26 59 29 -39 c112 -151 270 -150 387 4 19 27 66 104 103 173 90 169 129
216 275 335 158 130 234 209 267 281 23 50 25 65 21 147 -5 108 -24 153 -89
211 -53 49 -106 72 -197 87 l-72 12 78 31 c201 82 348 200 408 332 13 27 29
84 35 126 12 73 8 119 -17 206 l-7 24 116 -8 c128 -7 147 -2 147 44 0 14 -19
103 -42 196 -38 155 -42 183 -42 301 -1 129 -1 131 46 271 80 239 88 379 27
502 -35 71 -75 104 -152 123 -69 17 -154 7 -362 -42 -160 -38 -194 -42 -310
-43 -197 -1 -275 26 -275 97 0 40 37 88 71 92 14 2 42 15 63 29 98 66 237 73
530 25 309 -50 436 -33 530 71 81 90 116 206 116 390 0 161 -20 290 -96 620
-30 136 -35 252 -10 301 9 17 16 44 16 58 0 15 9 34 20 44 11 9 20 25 20 34 0
40 -9 42 -145 27 -72 -7 -240 -14 -375 -14 -135 0 -276 -5 -315 -10 -213 -31
-375 -104 -473 -215 -97 -110 -143 -250 -162 -495 -17 -222 -49 -327 -117
-392 -87 -83 -230 -74 -269 17 -24 59 -17 176 22 371 31 152 35 192 31 266
-10 157 -81 265 -201 305 l-29 9 58 33 c73 42 144 112 175 176 23 45 25 62 25
180 0 116 -2 135 -23 173 -29 54 -94 102 -205 148 -167 70 -204 108 -253 259
-32 99 -66 150 -123 183 -41 24 -56 27 -131 26 -65 0 -101 -7 -153 -26 -205
-78 -444 -292 -539 -485 -34 -70 -49 -186 -30 -233 9 -20 11 -12 11 49 1 63 6
82 33 134 84 157 403 406 582 453 66 18 101 17 164 -1 97 -29 136 -81 173
-229 27 -108 70 -182 130 -222 25 -17 93 -50 150 -74 164 -70 200 -119 154
-211 -61 -121 -197 -193 -482 -253 -115 -24 -124 -25 -189 -11 -38 8 -150 20
-249 26 -99 5 -223 14 -275 18 -52 4 -96 7 -98 5 -10 -7 -3 -68 10 -80 8 -8
47 -26 87 -40 60 -21 109 -28 274 -40 315 -22 344 -29 480 -111 124 -75 187
-153 187 -233 0 -70 -21 -95 -121 -145 -74 -38 -110 -65 -204 -155 -183 -175
-264 -219 -421 -228 -221 -12 -430 91 -509 251 -31 65 -34 103 -11 177 9 30
19 100 21 155 5 104 -2 99 -25 -18 -28 -139 -143 -293 -266 -355 -186 -94
-389 -46 -457 108 -11 24 -33 121 -49 215 -32 194 -46 229 -157 400 -166 256
-189 367 -93 463 36 36 109 79 118 69 2 -2 -2 -20 -10 -39 -27 -63 -40 -200
-28 -277 16 -93 38 -141 112 -239 84 -111 178 -277 224 -398 59 -155 67 -172
90 -191 18 -15 19 -15 6 -1 -12 14 -14 39 -10 133 4 82 2 119 -7 128 -6 7 -23
53 -37 102 -25 86 -93 232 -179 379 -31 54 -37 70 -26 77 28 18 168 69 207 75
39 6 40 7 31 36 -4 16 -43 73 -85 125 l-77 96 34 -6 c54 -10 227 -100 300
-156 37 -27 69 -47 73 -44 15 15 3 44 -36 88 l-42 47 45 -4 c24 -3 53 -8 63
-13 18 -8 19 -5 13 38 -4 26 -26 84 -49 129 -24 46 -45 87 -47 92 -9 21 65
-33 104 -77 51 -56 75 -121 84 -226 5 -64 3 -80 -12 -101 -58 -83 -10 -238 85
-272 15 -5 39 -26 54 -46 76 -101 273 -282 309 -282 4 0 5 13 3 29 l-4 30 34
-15 c47 -19 74 -18 70 3 -4 20 -30 35 -111 64 -31 11 -70 31 -85 43 -15 13
-32 21 -38 19 -6 -2 -46 30 -90 71 l-79 74 29 11 c51 20 86 52 116 105 28 50
32 53 102 73 40 12 102 40 137 63 78 51 393 358 389 379 -10 53 -89 -2 -261
-183 -123 -130 -146 -149 -218 -186 -88 -43 -109 -48 -109 -25 0 8 4 15 10 15
5 0 34 9 64 21 52 19 55 21 45 45 -8 23 -2 36 53 112 91 127 151 183 241 226
61 30 94 39 154 43 43 4 71 9 63 12 -22 9 -22 223 0 233 27 12 -64 8 -131 -6
-188 -40 -286 -161 -392 -484 -24 -73 -49 -138 -54 -143 -6 -6 -39 -21 -74
-34 -38 -13 -65 -29 -67 -39 -3 -13 3 -15 30 -10 26 5 31 4 22 -6 -7 -6 -24
-13 -38 -13 -19 -2 -26 -7 -26 -23 0 -23 -14 -38 -45 -48 -19 -5 -20 -1 -20
92 l0 97 -70 0 -70 0 -2 80 c-2 91 -26 169 -73 234 -30 41 -124 103 -149 99
-8 -2 -35 19 -60 45 -36 39 -42 50 -30 58 28 17 135 48 212 60 l77 12 0 107 0
108 -47 -5 c-260 -22 -341 -63 -379 -189 -20 -67 -18 -206 5 -286 23 -85 14
-82 -85 29 -133 148 -175 217 -176 284 -1 108 113 159 357 159 187 0 250 13
390 78 143 67 214 78 281 44 105 -54 137 -144 120 -337 l-6 -70 20 41 c66 137
10 376 -108 459 -40 27 -51 30 -120 30 -71 0 -86 -4 -194 -52 -132 -60 -195
-72 -363 -73 -184 -1 -323 -43 -384 -117 l-29 -35 -20 64 c-51 156 -56 188
-57 353 0 190 18 270 94 431 71 149 89 174 348 482 175 208 239 316 312 527
l42 120 66 34 c102 53 280 167 369 237 163 126 259 266 284 412 30 180 -65
340 -208 350 -169 12 -285 -94 -286 -261 0 -87 14 -117 53 -117 39 0 46 24 21
72 -27 52 -25 72 10 102 65 55 216 73 297 37 55 -25 75 -58 75 -121 -1 -93
-61 -189 -189 -301 -89 -78 -448 -317 -460 -306 -2 3 6 63 19 134 20 112 23
160 23 388 0 232 -2 272 -23 375 -49 244 -121 412 -364 847 -246 440 -329 677
-314 903 9 153 47 259 125 358 131 165 374 212 496 98 86 -81 40 -180 -120
-258 -91 -44 -102 -52 -133 -92 -14 -18 -22 -43 -22 -68 0 -39 0 -40 33 -33
151 33 264 107 303 200 9 22 19 77 22 123 9 151 -41 262 -142 314 -57 29 -156
34 -222 10z m156 -3509 c-1 -16 -93 -181 -147 -261 -30 -46 -109 -151 -176
-235 -144 -181 -234 -316 -287 -429 -130 -279 -142 -601 -33 -897 25 -67 36
-116 38 -163 4 -101 53 -195 185 -349 40 -47 42 -52 20 -46 -14 4 -51 7 -82 7
l-57 0 -123 123 c-167 165 -258 300 -339 504 -79 199 -107 396 -74 528 9 39
37 112 60 162 80 171 179 304 443 599 74 82 154 176 179 209 50 66 95 99 239
177 55 29 108 58 119 65 24 14 35 15 35 6z m203 -2795 c-3 -35 -7 -64 -9 -66
-1 -2 -14 4 -27 13 -47 30 -44 61 9 96 16 10 30 19 31 19 2 0 0 -28 -4 -62z
m3341 -257 c-9 -80 10 -227 52 -412 72 -319 76 -343 77 -454 3 -234 -80 -363
-262 -405 -61 -14 -188 -10 -435 15 -226 23 -339 4 -436 -74 -20 -16 -54 -38
-77 -49 -74 -38 -111 -115 -94 -193 6 -24 9 -44 8 -46 -2 -1 -41 13 -87 32
-100 40 -204 60 -276 51 -65 -7 -84 -15 -84 -31 0 -8 25 -14 74 -19 109 -10
200 -38 364 -115 156 -72 304 -126 325 -118 7 3 5 6 -5 6 -13 1 -18 9 -18 30
0 26 4 30 33 34 20 2 11 5 -28 7 -57 2 -54 3 60 20 66 9 183 32 260 49 316 73
450 46 485 -99 18 -74 6 -152 -48 -315 l-47 -140 0 -175 c1 -146 4 -191 23
-275 13 -55 26 -114 29 -131 l5 -31 -142 -5 c-83 -3 -145 -10 -149 -16 -8 -13
-216 57 -276 93 -52 30 -97 79 -173 186 -75 105 -116 142 -202 183 -59 28 -74
31 -160 31 -82 0 -103 -4 -152 -27 -32 -15 -80 -48 -108 -74 l-50 -47 -69 47
c-89 61 -156 132 -189 204 -29 61 -32 106 -21 357 3 72 0 106 -9 120 -11 17
-12 12 -7 -39 3 -34 -1 -113 -11 -185 -9 -70 -14 -163 -12 -209 4 -75 9 -92
54 -180 35 -71 66 -114 111 -159 l62 -62 -38 -63 c-76 -126 -119 -275 -107
-373 l7 -50 -41 83 c-95 193 -266 291 -506 292 -143 0 -245 -50 -260 -129 -7
-35 -12 -36 -59 -17 -42 18 -165 36 -241 36 -47 0 -54 -2 -54 -20 0 -17 7 -20
53 -20 66 0 173 -23 231 -49 59 -25 139 -101 187 -174 105 -161 108 -354 8
-430 -49 -36 -92 -52 -266 -96 -243 -63 -256 -71 -435 -291 -109 -133 -254
-198 -459 -207 -133 -6 -202 8 -282 59 -48 31 -117 109 -117 133 0 7 12 38 26
70 32 70 36 155 10 233 -10 29 -20 51 -22 49 -2 -2 1 -18 7 -36 17 -49 6 -158
-21 -215 -23 -48 -23 -48 -36 -24 -18 34 -44 169 -44 227 0 27 -5 53 -11 57
-15 9 -3 -179 17 -281 l13 -70 -59 -56 c-67 -63 -159 -115 -265 -151 -60 -20
-89 -23 -210 -23 -128 1 -146 3 -208 27 -148 59 -193 112 -244 285 -57 195
-81 220 -305 322 -143 65 -223 159 -235 276 -7 68 10 118 59 171 50 54 102 84
203 117 183 60 322 76 735 85 284 6 323 9 331 24 5 10 17 14 29 11 15 -4 20 0
20 15 0 32 -100 58 -126 32 -7 -7 -39 -7 -100 0 -49 5 -133 10 -187 10 -91 0
-99 2 -104 21 -4 14 -44 39 -137 84 -96 47 -147 79 -189 119 l-59 54 24 15
c13 8 57 34 98 57 98 54 120 77 187 185 30 50 69 104 85 121 l29 31 74 -27
c267 -100 538 -339 600 -532 17 -51 35 -84 35 -62 0 14 -45 136 -65 175 -97
191 -380 424 -562 464 -18 3 -33 10 -33 15 0 7 60 39 100 53 13 5 13 6 0 6
-13 1 -15 21 -13 126 2 141 3 140 -73 106 -62 -28 -110 -76 -176 -175 -86
-129 -110 -151 -228 -211 -164 -83 -194 -127 -193 -285 1 -57 7 -112 16 -137
8 -24 11 -43 7 -43 -4 0 -41 33 -82 73 -81 79 -119 144 -126 216 -8 87 50 126
223 151 172 25 229 65 356 252 46 67 107 147 136 178 125 135 262 154 453 62
200 -97 319 -312 365 -658 8 -60 15 -131 16 -159 1 -27 5 -63 10 -80 14 -49 1
271 -15 365 -19 111 -25 178 -17 182 3 2 14 29 24 60 10 32 40 91 68 132 118
177 309 288 469 273 102 -9 142 -35 290 -186 152 -155 189 -178 365 -227 136
-37 215 -74 263 -122 60 -60 76 -96 77 -172 0 -78 -26 -131 -103 -202 -110
-103 -367 -193 -702 -245 -122 -18 -556 -25 -633 -10 l-37 8 0 -35 c0 -33 3
-36 73 -70 39 -20 105 -43 145 -51 307 -63 932 78 1125 255 166 152 226 373
145 539 l-22 45 66 60 c42 39 123 95 229 155 236 137 300 192 563 486 258 287
535 557 877 852 157 136 242 231 289 325 38 77 47 108 34 121 -3 3 -32 -29
-64 -71 -67 -89 -115 -136 -295 -292 -305 -264 -536 -499 -884 -898 -112 -130
-305 -322 -322 -322 -3 0 -14 43 -24 96 -34 192 -115 293 -375 472 -74 50
-151 106 -170 122 l-35 30 120 118 c102 100 134 126 215 168 65 34 102 60 117
83 80 118 44 308 -83 441 -37 39 -52 61 -43 64 83 24 92 24 147 10 106 -28
174 -81 214 -169 32 -70 30 -190 -6 -350 -48 -211 -46 -382 6 -492 54 -115
138 -135 248 -60 l45 31 -42 -50 c-54 -65 -123 -128 -161 -148 -71 -36 -116
-13 -196 98 -92 129 -227 224 -371 261 -137 35 -173 5 -47 -40 160 -56 281
-149 402 -310 39 -52 82 -103 97 -115 76 -60 178 8 372 250 46 58 78 100 70
93 -12 -10 -14 -2 -12 47 0 32 6 67 12 79 23 42 3 19 -43 -49 -25 -38 -48 -70
-51 -70 -2 0 2 15 10 33 27 64 45 158 65 328 32 273 64 367 158 471 63 68 128
111 226 149 131 51 228 62 561 63 247 2 308 5 345 18 25 9 49 16 53 17 4 1 5
-26 1 -58z m-3235 -748 c76 -150 207 -236 398 -263 122 -16 265 10 351 64 l35
22 49 -48 c27 -27 113 -96 191 -155 220 -167 281 -235 328 -368 33 -94 39
-142 20 -158 -9 -8 -83 -56 -166 -108 -106 -66 -174 -116 -230 -171 -44 -43
-81 -78 -83 -78 -2 0 -18 11 -34 26 -51 42 -118 71 -268 114 -79 22 -167 53
-194 68 -31 16 -98 75 -171 149 -94 96 -133 128 -180 150 -194 89 -415 -5
-570 -245 -48 -75 -90 -168 -100 -225 -4 -21 -11 -35 -15 -30 -14 14 -50 191
-57 271 -7 96 9 197 45 276 15 33 66 113 114 178 48 66 100 142 117 171 33 58
81 193 81 229 0 18 11 28 50 46 67 31 158 117 200 190 l35 59 12 -53 c7 -29
26 -79 42 -111z m2123 -1733 c121 -37 177 -91 296 -285 65 -105 118 -142 247
-170 182 -40 245 -88 245 -189 0 -95 -68 -187 -210 -281 -121 -81 -279 -136
-623 -219 -22 -5 -28 -12 -25 -29 5 -34 49 -48 161 -52 303 -9 452 -67 513
-200 37 -79 29 -132 -29 -194 -18 -18 -95 -84 -172 -146 -187 -149 -249 -217
-315 -346 -111 -217 -170 -288 -260 -309 -58 -14 -100 -7 -157 26 -70 40 -94
81 -109 187 -8 50 -35 171 -62 267 l-47 175 -3 -110 c-4 -140 12 -257 48 -366
33 -101 30 -136 -21 -194 -40 -45 -85 -59 -175 -53 -118 8 -184 46 -325 188
-131 132 -169 157 -354 230 -162 64 -218 95 -256 137 -53 61 -32 113 73 184
33 22 61 39 64 37 2 -2 -1 -20 -6 -39 -13 -43 -13 -160 -1 -192 9 -23 15 -25
113 -29 136 -6 181 -26 272 -121 39 -40 65 -65 59 -57 -6 8 -13 56 -15 107 -3
80 -1 90 12 80 8 -6 -14 19 -50 56 -35 37 -78 73 -95 82 l-32 14 94 97 c87 89
94 99 91 132 -2 28 -8 37 -25 42 -19 4 -10 12 52 43 72 37 75 41 75 74 0 34
-1 34 -32 28 -58 -11 -160 -47 -275 -95 -72 -31 -116 -44 -125 -39 -7 5 -61
25 -120 44 -116 39 -179 78 -203 125 -15 30 -15 30 12 41 15 6 85 26 156 45
193 51 254 90 304 192 26 53 28 65 28 177 -1 107 -4 129 -31 205 -34 97 -86
182 -144 234 -22 20 -40 40 -40 45 0 17 60 60 98 71 97 27 318 -3 437 -59 146
-68 220 -179 265 -400 16 -76 36 -155 46 -177 9 -21 20 -61 24 -89 6 -50 6
-49 14 34 5 48 5 86 -1 90 -5 3 -24 65 -42 136 -27 106 -33 149 -34 235 0 162
45 264 177 407 82 88 169 150 245 174 73 23 115 23 193 -1z m-3784 -304 c3 -3
-13 -6 -35 -6 -27 0 -46 6 -57 19 -18 19 -17 19 34 6 29 -8 55 -16 58 -19z
m978 -1367 c44 -45 121 -90 176 -104 29 -8 44 -40 73 -165 24 -104 21 -107
-41 -45 -120 117 -350 227 -548 260 l-38 6 38 21 c60 31 142 98 188 150 l40
47 33 -62 c18 -34 54 -83 79 -108z m1741 69 c-2 -13 -4 -5 -4 17 -1 22 1 32 4
23 2 -10 2 -28 0 -40z m588 -528 c4 -42 3 -49 -5 -32 -14 33 -50 214 -49 249
1 37 46 -146 54 -217z"/>
<path d="M2313 4552 c-50 -27 -198 -157 -243 -213 -26 -33 -40 -61 -40 -80 0
-16 2 -29 4 -29 2 0 30 12 62 27 80 37 160 38 228 3 57 -29 142 -117 186 -195
17 -30 43 -69 57 -85 26 -32 92 -83 79 -62 -12 20 -7 396 5 401 6 2 -6 13 -27
25 -25 14 -58 50 -95 106 -32 47 -71 93 -86 102 -35 22 -89 22 -130 0z"/>
<path d="M4110 4526 c0 -23 90 -63 282 -126 272 -89 543 -239 696 -385 90 -85
190 -232 304 -449 66 -127 84 -153 86 -132 5 39 -22 114 -93 261 -150 311
-335 492 -669 657 -126 61 -229 96 -436 147 -69 17 -135 33 -147 37 -17 5 -23
2 -23 -10z"/>
<path d="M4030 4438 c0 -113 43 -282 91 -347 65 -90 146 -125 379 -166 215
-38 288 -64 360 -129 l35 -31 -28 31 c-27 30 -29 37 -30 133 -2 84 1 101 13
102 8 0 -24 15 -71 34 -120 47 -231 61 -371 45 -129 -15 -173 -10 -233 24 -70
41 -124 156 -125 266 0 19 -5 42 -10 50 -8 12 -10 9 -10 -12z"/>
<path d="M2280 3869 c-36 -45 -111 -126 -167 -179 -57 -54 -103 -103 -103
-110 0 -20 38 9 141 107 122 118 202 215 197 243 -2 15 -17 2 -68 -61z"/>
<path d="M2310 3751 c-15 -37 -121 -139 -180 -174 -25 -14 -67 -31 -95 -38
-27 -6 -56 -13 -62 -15 -7 -2 -10 -10 -6 -20 16 -43 169 16 262 101 59 54 111
128 111 157 0 28 -16 21 -30 -11z"/>
<path d="M1340 3631 c0 -11 9 -22 20 -26 26 -8 115 -70 169 -117 42 -37 71
-48 71 -28 0 5 -39 48 -86 96 -66 67 -88 84 -94 73 -8 -12 -14 -11 -39 4 -37
22 -41 21 -41 -2z"/>
<path d="M2595 3599 c-22 -4 -82 -8 -132 -8 -75 -1 -93 -4 -93 -16 0 -18 38
-38 110 -58 64 -18 180 -32 165 -20 -5 4 -10 28 -10 53 0 25 5 48 10 52 12 9
5 9 -50 -3z"/>
<path d="M1910 3513 c-18 -27 -48 -68 -66 -93 -20 -28 -30 -51 -25 -58 7 -11
74 88 120 176 19 36 7 25 -29 -25z"/>
<path d="M1680 3429 c-90 -26 -110 -52 -110 -143 0 -126 68 -199 177 -190 29
2 64 9 79 14 15 6 27 9 28 8 12 -23 80 -98 89 -98 47 0 252 -126 462 -284 72
-54 101 -71 103 -60 5 22 -17 43 -132 132 -124 95 -283 191 -375 227 -39 15
-82 40 -97 56 l-27 28 44 41 c43 39 56 42 101 25 9 -4 15 0 15 9 0 9 -16 21
-34 27 -19 6 -37 17 -40 25 -6 17 -24 14 -83 -14 -70 -33 -85 -30 -84 17 l2
39 -49 7 c-52 7 -61 18 -30 35 26 13 64 13 79 -2 19 -19 26 -1 12 29 -7 16
-13 39 -13 53 -1 23 -18 39 -42 38 -5 0 -39 -9 -75 -19z m-44 -116 c-3 -10 -1
-35 3 -55 10 -42 6 -46 -21 -21 -20 18 -23 45 -8 74 13 24 33 25 26 2z"/>
<path d="M1897 3314 c-21 -21 -5 -34 41 -34 37 0 49 4 49 15 0 8 -9 15 -21 15
-12 0 -30 3 -41 6 -11 3 -24 2 -28 -2z"/>
<path d="M780 3213 c-226 -26 -376 -131 -396 -276 -14 -100 29 -162 160 -230
134 -69 187 -130 231 -267 24 -73 71 -167 105 -209 28 -33 116 -101 132 -101
4 0 8 43 8 95 0 67 4 95 12 95 6 0 -15 16 -48 35 -89 53 -140 114 -199 240
-60 128 -87 156 -207 216 -127 64 -156 110 -100 161 35 33 58 44 160 79 115
39 225 59 336 60 50 1 81 4 70 6 -16 3 -23 13 -26 39 -4 30 -2 33 17 29 17 -5
17 -4 4 4 -34 22 -169 34 -259 24z"/>
<path d="M1361 3145 c-77 -41 -101 -62 -101 -87 0 -10 2 -18 3 -18 2 0 41 23
87 50 46 28 87 50 92 50 4 0 8 9 8 20 0 27 -15 25 -89 -15z"/>
<path d="M1510 3139 c-24 -43 -25 -43 -28 -16 -2 15 -7 27 -12 27 -5 0 -42
-37 -82 -82 -93 -105 -212 -224 -262 -263 -31 -25 -37 -35 -32 -53 7 -21 8
-21 39 -5 59 30 96 65 196 182 54 64 110 127 125 140 l26 24 -29 -79 c-31 -84
-63 -248 -54 -272 3 -8 21 48 40 124 19 76 50 171 69 212 40 83 43 129 4 61z"/>
<path d="M1557 2931 c-4 -84 -6 -155 -4 -158 8 -8 19 158 15 237 -2 59 -5 43
-11 -79z"/>
<path d="M1656 3032 c-27 -55 -56 -142 -56 -166 0 -12 11 8 24 44 13 36 31 84
41 108 22 54 15 65 -9 14z"/>
<path d="M1740 3032 c0 -10 22 -30 55 -50 133 -80 266 -201 395 -362 78 -97
85 -103 88 -77 7 61 -130 239 -267 347 -84 66 -236 160 -258 160 -7 0 -13 -8
-13 -18z"/>
<path d="M2060 3036 c0 -9 23 -15 83 -19 96 -7 233 -45 319 -88 48 -24 62 -28
69 -17 5 7 3 18 -4 25 -20 19 -158 71 -248 93 -99 24 -219 27 -219 6z"/>
<path d="M1702 2750 c0 -14 2 -19 5 -12 2 6 2 18 0 25 -3 6 -5 1 -5 -13z"/>
<path d="M1829 2745 c-6 -84 5 -344 16 -386 26 -97 79 -155 189 -205 51 -23
67 -26 135 -22 56 4 90 12 127 31 57 29 182 127 229 178 17 19 21 26 10 17
-20 -16 -20 -16 -18 102 l2 119 -62 -45 c-166 -122 -317 -153 -451 -90 -94 43
-119 83 -131 204 -5 48 -13 80 -26 95 -18 21 -18 21 -20 2z"/>
<path d="M1730 2645 c0 -5 5 -17 10 -25 5 -8 10 -10 10 -5 0 6 -5 17 -10 25
-5 8 -10 11 -10 5z"/>
<path d="M2593 5155 c12 -89 71 -334 95 -393 61 -153 211 -253 450 -298 288
-56 358 -79 369 -123 l6 -26 8 30 c28 102 -61 170 -296 225 -164 39 -243 64
-325 105 -141 71 -200 154 -244 345 -15 63 -36 129 -47 145 l-21 30 5 -40z"/>
<path d="M2890 5079 c0 -73 205 -262 350 -323 l35 -14 -5 79 c-4 64 -2 79 10
82 8 1 -23 13 -70 26 -111 30 -172 62 -235 122 -56 53 -85 62 -85 28z"/>
<path d="M4473 3633 c-172 -60 -365 -420 -362 -672 0 -48 2 -53 11 -31 34 83
55 116 140 215 52 61 114 127 138 147 73 63 169 84 233 52 21 -11 28 -12 20
-3 -18 18 -19 284 -1 273 7 -4 8 -3 4 4 -9 14 -72 32 -111 31 -16 0 -49 -7
-72 -16z"/>
<path d="M3465 3255 c-22 -13 -57 -33 -78 -45 -34 -19 -38 -25 -32 -48 7 -29
131 -161 181 -192 17 -11 50 -26 72 -34 l41 -15 -2 160 c-1 100 2 159 8 159 6
1 -6 9 -25 20 -50 27 -116 25 -165 -5z"/>
<path d="M4575 3076 c-268 -202 -385 -337 -400 -461 l-5 -40 13 41 c32 95 107
174 347 361 178 138 213 173 208 201 -2 16 -29 0 -163 -102z"/>
<path d="M4478 2839 c-55 -45 -198 -215 -198 -236 0 -11 45 27 125 107 69 69
125 133 125 142 0 25 -9 22 -52 -13z"/>
<path d="M4456 2671 c-21 -21 -36 -46 -34 -54 4 -22 98 48 98 74 0 30 -22 23
-64 -20z"/>
<path d="M3885 2668 c7 -22 64 -118 70 -118 9 0 -5 37 -31 86 -29 55 -51 72
-39 32z"/>
<path d="M4213 2598 c-15 -24 -31 -45 -34 -48 -3 -3 -9 -22 -13 -42 -7 -39
-20 -49 -30 -23 -3 8 -17 20 -30 26 -14 7 -27 21 -29 33 -4 20 -4 20 -6 -1 -1
-17 -7 -23 -25 -23 -39 0 -54 -10 -78 -48 -19 -31 -23 -51 -23 -117 1 -87 18
-135 56 -156 27 -14 55 -6 105 30 l41 30 11 105 c9 86 18 118 44 168 32 62 50
108 42 108 -2 0 -16 -19 -31 -42z m-173 -248 c0 -13 -5 -18 -15 -14 -12 5 -13
10 -4 20 15 19 19 18 19 -6z"/>
<path d="M3710 2620 c0 -13 93 -104 123 -121 39 -22 14 16 -45 70 -67 61 -78
69 -78 51z"/>
<path d="M3492 2588 c6 -39 227 -142 357 -166 45 -8 51 -7 51 8 0 11 -14 21
-42 29 -24 7 -58 21 -76 32 -19 11 -37 17 -42 14 -4 -2 -60 20 -124 50 -64 30
-119 55 -122 55 -3 0 -4 -10 -2 -22z"/>
<path d="M3050 2391 c0 -38 85 -91 166 -104 l42 -7 4 39 3 39 -62 5 c-34 4
-80 15 -102 27 -49 25 -51 25 -51 1z"/>
<path d="M4230 2391 c-25 -7 -42 -41 -20 -41 18 0 70 30 70 40 0 11 -13 11
-50 1z"/>
<path d="M4573 2359 c-23 -23 -15 -73 14 -100 15 -13 22 -17 16 -9 -7 9 -13
39 -15 68 -2 43 -5 51 -15 41z"/>
<path d="M3753 2353 c-41 -5 -46 -33 -5 -33 38 0 102 19 102 30 0 10 -34 11
-97 3z"/>
<path d="M4310 2265 c0 -19 14 -26 140 -70 58 -20 120 -45 138 -56 41 -23 42
-23 42 0 0 21 -66 53 -200 96 -47 15 -89 31 -94 36 -15 13 -26 11 -26 -6z"/>
<path d="M3795 2182 c-48 -45 -61 -52 -63 -38 -3 13 -16 -4 -42 -50 -21 -38
-59 -89 -84 -114 -42 -41 -62 -90 -36 -90 22 0 79 63 110 122 19 35 45 72 59
83 14 10 44 36 65 57 l39 38 -6 -52 c-7 -66 -24 -118 -97 -288 -62 -146 -85
-217 -94 -295 -11 -88 9 -82 28 7 22 104 126 366 160 403 14 15 26 32 26 36 0
5 5 9 10 9 6 0 10 -24 10 -52 0 -52 27 -129 49 -142 19 -12 12 29 -14 86 -28
60 -32 125 -10 167 13 27 11 41 -6 41 -4 0 -9 -10 -13 -22 -3 -13 -16 -36 -29
-52 l-24 -29 14 79 c7 43 12 95 11 116 l-3 36 -60 -56z"/>
<path d="M4180 2216 c0 -24 71 -71 224 -147 135 -67 165 -73 149 -32 -4 10
-243 135 -365 191 -5 2 -8 -3 -8 -12z"/>
<path d="M4110 2199 c0 -11 15 -32 33 -47 57 -46 186 -174 290 -286 l101 -108
-46 -44 c-39 -36 -54 -44 -85 -44 -53 0 -85 30 -136 125 -38 73 -45 80 -72 80
-23 0 -31 -5 -33 -22 -4 -28 72 -260 109 -334 79 -158 193 -125 312 92 15 28
24 48 19 45 -6 -3 -12 8 -14 24 -4 24 -2 28 10 18 10 -9 16 -8 23 3 13 21 11
31 -15 64 -19 24 -22 34 -14 55 9 24 8 24 -8 8 -17 -17 -26 -9 -194 155 -150
149 -252 237 -274 237 -3 0 -6 -9 -6 -21z"/>
<path d="M1612 11383 c2 -11 22 -21 63 -30 32 -7 70 -23 82 -35 28 -26 40 -17
27 20 -12 35 -66 62 -127 62 -40 0 -48 -3 -45 -17z"/>
<path d="M1555 11279 c-72 -12 -130 -34 -133 -50 -2 -12 22 -14 145 -11 81 2
154 5 161 7 6 3 12 15 12 28 0 19 -7 26 -31 31 -39 8 -90 6 -154 -5z"/>
<path d="M1538 11166 c-134 -48 -378 -194 -378 -228 0 -12 5 -18 13 -15 6 3
63 28 125 56 62 29 154 63 204 78 78 22 104 25 189 21 l99 -5 0 29 c0 19 -10
40 -29 59 -26 26 -36 29 -93 29 -40 0 -87 -9 -130 -24z"/>
<path d="M3047 10453 c-17 -16 -2 -36 63 -89 96 -78 109 -101 120 -224 12
-144 24 -139 17 7 -8 161 -26 197 -149 286 -40 29 -42 30 -51 20z"/>
<path d="M3417 10443 c-12 -11 -8 -22 21 -48 25 -23 27 -30 24 -95 -2 -43 1
-70 8 -70 17 0 13 172 -6 198 -15 22 -35 28 -47 15z"/>
<path d="M3270 10417 c0 -13 12 -34 26 -48 35 -32 64 -95 64 -142 0 -23 4 -36
10 -32 17 11 11 98 -11 145 -22 48 -44 77 -71 91 -15 8 -18 6 -18 -14z"/>
<path d="M2850 10406 c0 -20 13 -32 67 -62 138 -77 189 -148 200 -275 9 -110
26 -97 21 17 -7 163 -62 249 -201 315 -75 35 -87 36 -87 5z"/>
<path d="M3760 9085 c-167 -52 -249 -304 -139 -430 72 -81 182 -67 218 28 12
32 14 77 4 102 -5 14 -9 10 -17 -16 -9 -28 -19 -37 -54 -48 -90 -28 -173 18
-157 89 9 41 58 96 109 122 62 32 160 36 220 9 73 -32 120 -74 157 -143 34
-63 34 -63 33 -193 -1 -114 -4 -140 -28 -210 -59 -173 -143 -313 -256 -425
-94 -95 -170 -135 -355 -190 -77 -23 -173 -52 -212 -65 -40 -13 -73 -22 -73
-20 0 2 8 26 19 52 56 143 71 353 33 470 -39 123 -97 193 -202 242 -48 23 -68
26 -156 26 -95 0 -103 -2 -150 -30 -68 -43 -99 -99 -99 -185 0 -53 5 -74 27
-112 50 -85 131 -115 212 -79 44 19 47 23 44 53 -3 31 -5 32 -73 45 -38 7 -83
18 -100 24 -31 13 -75 47 -75 59 0 4 28 22 63 41 56 30 69 33 142 33 259 -3
392 -153 355 -399 -12 -78 -41 -179 -66 -226 -7 -15 -35 -39 -61 -55 -70 -41
-141 -112 -171 -169 -19 -39 -26 -68 -29 -130 l-3 -80 13 57 c32 142 160 221
495 308 255 66 386 142 507 293 154 192 250 491 230 716 -28 325 -192 501
-405 436z"/>
<path d="M387 7925 c-103 -20 -147 -39 -147 -64 0 -11 4 -22 9 -25 5 -4 74
-13 153 -21 78 -8 160 -20 182 -27 162 -51 121 -224 -120 -508 -115 -136 -154
-191 -194 -269 -54 -108 -73 -248 -50 -358 9 -38 7 -62 -5 -108 -46 -178 4
-416 123 -592 97 -142 210 -224 551 -396 332 -167 451 -251 570 -400 115 -146
170 -289 179 -472 6 -105 7 -113 13 -65 9 72 -6 231 -30 334 -53 222 -168 431
-305 553 -88 78 -201 139 -418 227 -314 128 -396 175 -504 287 -70 74 -106
132 -128 208 -19 63 -21 169 -5 226 l11 40 17 -25 c67 -103 147 -150 256 -150
117 1 194 51 244 160 33 73 41 200 17 265 -40 103 -153 140 -295 96 -83 -26
-141 -62 -194 -121 l-45 -50 -6 33 c-7 38 6 124 29 187 25 72 58 120 196 292
137 171 196 272 224 383 17 69 19 173 4 228 -12 46 -58 99 -102 120 -49 23
-142 28 -230 12z m333 -1223 c72 -36 76 -93 12 -164 -49 -54 -121 -88 -191
-88 -79 0 -128 19 -184 70 l-49 46 61 56 c47 44 76 62 124 77 80 25 180 27
227 3z"/>
<path d="M2466 6718 c-3 -13 -5 -34 -5 -48 1 -15 5 -7 10 19 9 47 6 68 -5 29z"/>
<path d="M2271 6672 c-1 -24 24 -92 34 -92 3 0 1 9 -5 19 -5 11 -14 37 -19 58
-6 24 -9 30 -10 15z"/>
<path d="M2236 6521 c-65 -72 -219 -129 -372 -138 -92 -5 -104 -8 -104 -25 0
-16 9 -18 103 -18 113 0 218 19 283 50 34 17 47 19 64 10 28 -15 22 -28 -28
-67 -58 -44 -143 -74 -237 -81 -61 -5 -80 -10 -80 -22 0 -19 82 -25 155 -12
28 5 53 6 55 2 8 -13 85 11 85 26 0 7 8 18 18 23 10 5 31 28 46 50 23 33 27
47 22 75 -4 19 -12 37 -19 39 -8 3 -4 13 11 30 16 16 22 34 20 52 l-3 27 -19
-21z"/>
<path d="M3187 6503 c-35 -14 -38 -18 -35 -50 2 -28 11 -41 43 -63 22 -16 51
-31 65 -35 17 -4 21 -3 12 3 -17 11 -22 150 -7 156 6 3 -1 5 -15 5 -14 0 -42
-7 -63 -16z"/>
<path d="M2703 6383 c-24 -8 -43 -21 -43 -29 0 -18 1 -17 50 2 22 9 40 22 40
30 0 8 -1 14 -2 13 -2 0 -22 -7 -45 -16z"/>
<path d="M2550 6261 c0 -13 8 -17 48 -26 25 -5 32 -3 32 8 0 14 -28 27 -62 27
-10 0 -18 -4 -18 -9z"/>
<path d="M2176 6217 c6 -41 4 -47 -20 -62 -14 -10 -26 -26 -26 -38 0 -19 1
-20 20 -2 25 23 34 15 25 -25 -9 -41 -49 -86 -96 -111 -62 -31 -48 -70 17 -49
49 16 83 72 98 159 6 39 17 76 24 83 16 16 15 33 -1 19 -18 -14 -27 -4 -27 30
0 15 -4 31 -10 34 -6 4 -8 -10 -4 -38z"/>
<path d="M2622 6139 c2 -18 15 -28 53 -42 89 -34 239 -84 273 -92 28 -6 32 -4
32 15 0 27 -64 56 -216 100 -60 17 -117 34 -127 37 -15 4 -18 0 -15 -18z"/>
<path d="M2351 6114 c0 -11 3 -14 6 -6 3 7 2 16 -1 19 -3 4 -6 -2 -5 -13z"/>
<path d="M2587 5891 c-11 -53 -8 -141 7 -212 38 -178 167 -310 319 -326 51 -5
164 5 142 13 -6 3 -8 57 -5 149 l5 145 -35 -7 c-19 -5 -71 -8 -115 -8 -70 1
-88 5 -141 32 -75 39 -128 98 -144 161 -21 83 -26 91 -33 53z"/>
<path d="M6605 2786 c-39 -17 -82 -68 -107 -126 -21 -48 -88 -328 -88 -367 0
-42 36 -9 107 99 74 112 154 181 251 218 68 26 163 26 217 1 47 -22 99 -74
114 -114 20 -52 13 -147 -14 -206 -74 -158 -189 -222 -432 -242 -217 -18 -406
10 -561 82 -161 74 -261 164 -392 349 -41 58 -102 133 -136 166 -60 60 -152
114 -193 114 -38 0 -22 -25 32 -52 28 -14 73 -44 99 -67 53 -47 124 -139 114
-148 -3 -4 1 -18 11 -32 27 -43 218 -262 274 -316 153 -148 278 -330 329 -481
29 -86 34 -116 38 -230 5 -144 -5 -224 -43 -335 -36 -106 -80 -174 -180 -275
-114 -115 -160 -135 -315 -142 -125 -5 -214 13 -302 60 -49 26 -98 71 -98 91
0 2 28 12 62 22 212 59 298 147 298 302 0 83 -15 126 -55 163 -23 21 -36 25
-88 24 -76 0 -125 -24 -191 -90 -66 -68 -98 -138 -104 -231 -3 -41 -10 -76
-16 -79 -6 -2 -103 -19 -216 -38 -357 -61 -487 -112 -621 -245 -110 -110 -157
-212 -174 -385 -8 -76 8 -86 18 -12 4 25 19 74 35 108 73 160 215 265 451 334
61 18 505 114 528 114 1 0 9 -24 18 -52 78 -240 278 -379 467 -324 96 28 293
187 390 316 63 83 122 204 150 305 18 70 21 107 22 285 0 170 -4 221 -21 300
-23 107 -59 203 -109 292 -19 33 -34 61 -34 62 0 1 31 -8 68 -20 105 -35 232
-54 368 -54 337 0 515 123 571 395 37 181 -30 349 -167 420 -92 48 -306 71
-375 41z m-975 -1566 c77 -41 17 -141 -124 -206 -50 -23 -178 -64 -200 -64
-12 0 3 68 24 111 54 105 229 197 300 159z"/>
<path d="M7060 2721 c0 -6 25 -27 56 -47 70 -47 140 -116 163 -163 40 -80 34
-138 -23 -230 -45 -74 -57 -104 -46 -122 7 -11 15 -8 41 16 47 44 71 106 76
200 8 113 -12 177 -76 247 -64 69 -191 135 -191 99z"/>
<path d="M7383 2604 c3 -16 19 -67 36 -114 45 -123 42 -168 -14 -276 -48 -91
-53 -121 -20 -116 96 17 119 249 43 444 -31 81 -55 114 -45 62z"/>
<path d="M5577 2414 c-4 -4 -7 -14 -7 -23 0 -11 3 -12 11 -4 6 6 10 16 7 23
-2 6 -7 8 -11 4z"/>
<path d="M497 2385 c-15 -8 -53 -37 -84 -64 -88 -79 -171 -110 -289 -111 -34
0 -76 -3 -93 -6 -27 -6 -31 -11 -31 -40 0 -35 -1 -34 130 -136 48 -38 63 -58
115 -164 33 -66 75 -143 93 -172 45 -70 175 -190 247 -228 l58 -32 -39 -12
c-91 -29 -174 -100 -218 -188 -61 -123 -66 -261 -15 -522 31 -160 34 -190 32
-348 0 -94 1 -172 4 -172 2 0 34 18 71 40 151 92 314 107 677 64 139 -16 311
-18 373 -4 115 27 200 97 257 213 21 44 53 141 80 250 64 251 97 311 197 361
102 51 183 25 195 -62 10 -73 27 -63 20 11 -7 76 -25 116 -64 147 -54 43 -171
6 -243 -77 -49 -56 -77 -125 -120 -302 -49 -196 -74 -255 -142 -327 -64 -68
-119 -97 -221 -118 -96 -20 -181 -20 -382 0 -324 33 -492 21 -616 -42 -27 -13
-50 -24 -52 -24 -2 0 -4 55 -5 122 0 88 -8 163 -27 263 -15 77 -29 181 -32
231 -14 230 102 374 354 437 50 12 76 13 135 5 97 -14 343 -3 443 19 74 17 80
20 83 45 3 23 -2 29 -25 35 -15 4 -148 7 -295 5 -306 -3 -367 5 -477 63 -140
74 -236 183 -337 385 -45 90 -76 139 -100 158 -19 15 -34 30 -34 33 0 4 30 8
68 11 94 7 150 35 241 122 73 69 90 80 146 88 13 2 21 12 23 31 3 25 1 27 -35
27 -21 0 -51 -7 -66 -15z"/>
<path d="M7517 2148 c5 -62 4 -68 -21 -93 -34 -34 -36 -78 -3 -73 30 4 48 58
41 124 -9 84 -24 120 -17 42z"/>
<path d="M7668 2079 c-4 -14 -26 -46 -48 -71 -41 -47 -47 -62 -30 -73 33 -20
93 71 88 133 -3 34 -4 35 -10 11z"/>
<path d="M6250 1915 c0 -9 27 -27 64 -44 35 -16 131 -68 212 -117 326 -193
468 -238 754 -237 206 1 312 19 750 128 519 129 640 150 890 149 161 0 277
-12 378 -40 21 -6 23 -4 20 17 -4 29 -95 77 -213 111 -72 21 -100 23 -285 23
-245 0 -283 -6 -696 -110 -691 -174 -883 -189 -1262 -95 -183 45 -250 69 -382
135 -81 41 -210 95 -225 95 -3 0 -5 -7 -5 -15z"/>
<path d="M8565 1640 c-60 -4 -140 -8 -177 -9 -66 -1 -68 -2 -68 -26 0 -14 6
-27 13 -30 6 -2 165 -8 352 -14 371 -12 445 -19 610 -58 306 -72 616 -207 915
-398 168 -107 340 -194 435 -220 95 -26 301 -30 407 -7 l87 18 10 -27 c24 -69
129 -147 235 -175 53 -14 222 -17 266 -5 21 6 31 0 67 -39 22 -25 63 -58 90
-73 65 -35 176 -60 231 -53 39 5 46 3 76 -27 65 -65 160 -95 326 -104 112 -5
244 6 323 28 30 8 38 15 35 30 -3 20 -12 20 -213 23 -222 3 -311 18 -406 67
l-39 20 22 29 c31 42 38 152 13 180 -10 11 -26 20 -36 20 -25 0 -67 -55 -74
-98 -11 -62 -11 -62 -65 -62 -80 0 -184 28 -230 61 l-41 30 30 25 c52 44 74
105 75 208 l1 91 -46 -1 c-89 -1 -138 -65 -139 -180 0 -61 0 -62 -31 -68 -123
-24 -319 25 -387 97 l-22 23 93 47 c112 57 192 125 232 198 74 136 9 320 -122
345 -47 9 -125 -21 -172 -66 -78 -76 -131 -227 -131 -374 0 -74 5 -71 -115
-87 -164 -21 -357 17 -535 106 -47 23 -150 84 -230 135 -366 232 -774 382
-1149 420 -111 11 -339 11 -516 0z m2904 -258 c14 -10 32 -31 39 -45 44 -90
-103 -238 -303 -307 l-55 -19 -6 25 c-11 45 2 148 26 193 30 60 107 140 155
163 48 22 106 18 144 -10z m341 -442 c0 -39 -98 -139 -121 -124 -24 15 3 103
38 123 24 14 83 14 83 1z m350 -254 c0 -18 -38 -46 -63 -46 -15 0 -16 3 -6 23
7 12 17 25 23 29 19 13 46 9 46 -6z"/>
<path d="M1761 1520 c-56 -218 -96 -298 -191 -389 -95 -90 -212 -156 -457
-257 -337 -139 -473 -224 -517 -323 -19 -41 -16 -111 5 -111 6 0 7 14 3 36 -6
33 -3 39 43 83 64 62 203 132 428 216 276 104 400 172 510 282 93 93 124 160
170 367 25 112 30 189 6 96z"/>
<path d="M2580 1482 c0 -23 6 -30 38 -41 233 -82 427 -195 554 -322 62 -62 85
-94 121 -170 56 -117 71 -182 65 -291 -5 -106 -31 -161 -138 -302 -42 -56 -87
-119 -100 -141 -59 -101 -88 -107 -194 -41 -119 74 -246 133 -398 185 -170 58
-235 89 -281 134 -64 65 -87 146 -87 308 0 65 -4 99 -11 99 -8 0 -10 -51 -7
-172 5 -194 18 -250 71 -320 68 -88 149 -134 403 -224 133 -46 186 -71 252
-116 57 -39 121 -68 154 -68 34 0 64 35 124 148 26 48 69 117 95 153 105 143
144 268 136 434 -11 248 -125 453 -340 616 -133 101 -282 158 -409 159 -46 0
-48 -1 -48 -28z"/>
<path d="M8621 1429 c-28 -41 -79 -113 -112 -162 -125 -178 -247 -258 -454
-297 -33 -7 -202 -15 -375 -20 -393 -10 -478 -25 -607 -106 -65 -42 -104 -99
-111 -163 -4 -42 -1 -52 26 -83 44 -49 142 -77 142 -40 0 11 -20 26 -59 45
-69 32 -83 56 -54 96 58 78 184 131 356 150 53 6 203 11 334 11 273 0 386 13
513 60 173 62 276 170 405 422 53 103 67 140 58 148 -8 9 -23 -6 -62 -61z"/>
<path d="M6569 1439 c-18 -34 -7 -130 20 -167 49 -69 157 -93 221 -49 18 12
42 34 53 48 20 28 36 119 21 119 -5 0 -20 -17 -34 -37 -41 -60 -114 -78 -188
-48 -66 28 -82 50 -75 106 6 53 0 62 -18 28z"/>
<path d="M7058 1357 c-20 -41 -51 -91 -69 -112 -67 -76 -164 -101 -261 -68
-32 11 -60 18 -63 15 -16 -16 2 -36 52 -59 108 -50 209 -28 294 64 52 55 92
147 87 201 -3 33 -4 32 -40 -41z"/>
<path d="M7221 1380 c-3 -91 -71 -178 -158 -203 -43 -13 -48 -17 -51 -45 -3
-31 -2 -32 37 -32 53 0 89 15 129 53 50 49 78 172 52 232 -8 18 -9 18 -9 -5z"/>
<path d="M7350 1364 c0 -51 -27 -124 -59 -165 -29 -35 -41 -79 -23 -79 13 0
58 52 76 87 21 43 32 144 18 169 -10 17 -11 15 -12 -12z"/>
<path d="M877 1315 c-166 -46 -317 -182 -376 -339 -38 -102 -49 -276 -24 -401
5 -25 9 -17 24 51 10 45 27 101 39 124 30 59 97 121 177 162 66 35 104 49 283
102 l85 25 -3 136 c-3 135 -3 135 20 136 19 1 18 3 -7 9 -48 12 -166 9 -218
-5z"/>
<path d="M2210 1306 c0 -7 25 -24 56 -36 68 -28 149 -101 204 -183 30 -45 40
-54 34 -33 -5 22 -4 27 6 21 23 -14 -24 55 -78 115 -37 41 -74 70 -124 95 -77
38 -98 43 -98 21z"/>
<path d="M1060 566 c-30 -7 -82 -21 -115 -30 -32 -9 -69 -16 -80 -16 -39 0
-124 -30 -151 -54 -42 -35 -22 -47 33 -20 59 30 137 31 266 5 121 -25 194 -32
237 -22 19 5 29 9 23 10 -9 1 -13 21 -13 66 0 61 -1 65 -22 65 -13 0 -45 2
-73 5 -27 2 -75 -2 -105 -9z"/>
<path d="M1278 573 c7 -3 16 -2 19 1 4 3 -2 6 -13 5 -11 0 -14 -3 -6 -6z"/>
</g>
</svg>
